<svg data-test-id="logo" xmlns="http://www.w3.org/2000/svg" xmlns:xlink="http://www.w3.org/1999/xlink" viewBox="0 0 763 168">
  <defs>
    <clipPath id="clip-Prancheta_5">
      <rect width="763" height="168"/>
    </clipPath>
  </defs>
  <g id="Prancheta_5" data-name="Prancheta – 5" clip-path="url(#clip-Prancheta_5)">
    <g id="Grupo_31" data-name="Grupo 31" transform="translate(-160 -9)">
      <text id="Traceless" transform="translate(175 139)" fill="#fff" font-size="121" font-family="Lexend-Bold, Lexend" font-weight="700"><tspan x="0" y="0">Traceless</tspan></text>
      <g id="Grupo_30" data-name="Grupo 30" transform="translate(797.223 43.821)">
        <g id="noun_send_3835926" transform="translate(0)">
          <path class="logo-icon" id="Caminho_1" data-name="Caminho 1" d="M110.59,2.079a3.689,3.689,0,0,0-3.848-.863L3.449,38.107a3.689,3.689,0,0,0-.085,6.917l42.66,16.405,18.77-18.77a3.689,3.689,0,1,1,5.217,5.217L51.241,66.664l16.405,42.66a3.689,3.689,0,0,0,3.446,2.346h.044a3.689,3.689,0,0,0,3.431-2.45L111.457,5.927A3.689,3.689,0,0,0,110.59,2.079Z" transform="translate(-1 -1.001)" fill="#f1d300"/>
        </g>
      </g>
    </g>
  </g>
</svg>
