<svg xmlns="http://www.w3.org/2000/svg" xmlns:xlink="http://www.w3.org/1999/xlink" viewBox="0 0 90 84">
  <defs>
    <clipPath id="clip-Prancheta_7">
      <rect width="90" height="84"/>
    </clipPath>
  </defs>
  <g id="Prancheta_7" data-name="Prancheta – 7" clip-path="url(#clip-Prancheta_7)">
    <g id="Grupo_39" data-name="Grupo 39" transform="translate(-345.385 -22.714)">
      <g id="noun_Home_3874019" transform="translate(348.385 25.714)">
        <path id="Caminho_11" data-name="Caminho 11" d="M98.357,51.759,59.307,18.6a2.581,2.581,0,0,0-3.193,0L17.064,51.759a2.465,2.465,0,0,0-.737,2.7,2.4,2.4,0,0,0,2.333,1.6h3.316V94.125a2.463,2.463,0,0,0,2.456,2.456H48.378a2.463,2.463,0,0,0,2.456-2.456V72.635a1.679,1.679,0,0,1,1.719-1.719h10.07a1.679,1.679,0,0,1,1.719,1.719v21.49A2.463,2.463,0,0,0,66.8,96.581H90.866a2.463,2.463,0,0,0,2.456-2.456V56.179h3.316a2.518,2.518,0,0,0,2.333-1.6A2.672,2.672,0,0,0,98.357,51.759Zm-9.824,1.965V91.669H69.376V72.635A6.6,6.6,0,0,0,62.745,66H52.8a6.6,6.6,0,0,0-6.631,6.631V91.669H26.888V53.723a2.51,2.51,0,0,0-1.719-2.333L57.71,23.637,90.13,51.267A2.563,2.563,0,0,0,88.533,53.723Z" transform="translate(-16.182 -18.05)" fill="#fff"/>
      </g>
      <path id="Caminho_12" data-name="Caminho 12" d="M1436.179,1402.351l32.5-27.53,33.425,27.53-2.511,40.78h-19.242v-14.312l-1.173-9.187-3.935-2.311-11.394.466-5.307,1.845-.724,5.465-.593,17.439-12.05.6h-9Z" transform="translate(-1078.752 -1343.126)" fill="#fff" stroke="#fff" stroke-width="1"/>
    </g>
  </g>
</svg>
