<svg xmlns="http://www.w3.org/2000/svg" xmlns:xlink="http://www.w3.org/1999/xlink" viewBox="0 0 90 84">
  <defs>
    <clipPath id="clip-Prancheta_8">
      <rect width="90" height="84"/>
    </clipPath>
  </defs>
  <g id="Prancheta_8" data-name="Prancheta – 8" clip-path="url(#clip-Prancheta_8)">
    <g id="Grupo_41" data-name="Grupo 41">
      <g id="noun_Home_3888296" transform="translate(5 2.439)">
        <path id="Caminho_15" data-name="Caminho 15" d="M35.447,2.211a7.528,7.528,0,0,1,9.405,0l32.621,26.1A7.528,7.528,0,0,1,80.3,34.186V71.923a7.528,7.528,0,0,1-7.528,7.528H52.7a2.509,2.509,0,0,1-2.509-2.509V51.849a2.509,2.509,0,0,0-2.509-2.509H32.621a2.509,2.509,0,0,0-2.509,2.509V76.942A2.509,2.509,0,0,1,27.6,79.451H7.528A7.528,7.528,0,0,1,0,71.923V34.186a7.528,7.528,0,0,1,2.825-5.878Zm6.27,3.919a2.509,2.509,0,0,0-3.135,0L5.96,32.227a2.51,2.51,0,0,0-.942,1.96V71.923a2.509,2.509,0,0,0,2.509,2.509H25.093V51.849a7.528,7.528,0,0,1,7.528-7.528H47.677a7.528,7.528,0,0,1,7.528,7.528V74.433H72.771a2.509,2.509,0,0,0,2.509-2.509V34.186a2.51,2.51,0,0,0-.942-1.96Z" transform="translate(0 0)" fill="#fff" fill-rule="evenodd"/>
      </g>
      <path id="Caminho_16" data-name="Caminho 16" d="M-1640.245,3785.164l.787-13.677,36.944-29.358,36.5,28.266.73,43.142-5.855,2.731H-1589.3l-.911-26.666-3.762-3.273h-16.9l-5.07,3.273v26.666h-23.52Z" transform="translate(1648 -3737)" fill="#fff"/>
    </g>
  </g>
</svg>
