<svg xmlns="http://www.w3.org/2000/svg" xmlns:xlink="http://www.w3.org/1999/xlink" viewBox="0 0 100 100">
  <defs>
    <clipPath id="clip-Prancheta_1">
      <rect width="100" height="100"/>
    </clipPath>
  </defs>
  <g id="Prancheta_1" data-name="Prancheta – 1" clip-path="url(#clip-Prancheta_1)">
    <g id="Grupo_17" data-name="Grupo 17" transform="translate(-356 -855)">
      <g id="noun_send_3835926" transform="translate(365 864)">
        <path id="Caminho_1" data-name="Caminho 1" d="M81.921,1.8a2.724,2.724,0,0,0-2.841-.637L2.808,28.4a2.724,2.724,0,0,0-.063,5.107l31.5,12.113,13.86-13.86a2.724,2.724,0,1,1,3.852,3.852L38.1,49.486l12.114,31.5a2.724,2.724,0,0,0,2.544,1.732h.033a2.724,2.724,0,0,0,2.533-1.809L82.561,4.638A2.724,2.724,0,0,0,81.921,1.8Z" transform="translate(-1 -1.001)" fill="#fff"/>
      </g>
    </g>
  </g>
</svg>
