<svg xmlns="http://www.w3.org/2000/svg" xmlns:xlink="http://www.w3.org/1999/xlink" viewBox="0 0 90 66">
  <defs>
    <clipPath id="clip-Prancheta_10">
      <rect width="90" height="66"/>
    </clipPath>
  </defs>
  <g id="Prancheta_10" data-name="Prancheta – 10" clip-path="url(#clip-Prancheta_10)">
    <g id="noun_users_1214554" transform="translate(-2 -14.591)">
      <g id="Grupo_52" data-name="Grupo 52" transform="translate(6 19.591)">
        <path id="Caminho_21" data-name="Caminho 21" d="M68.478,971.953a12.451,12.451,0,0,0-7.255,22.572A19.512,19.512,0,0,0,49.5,1008.417a25.624,25.624,0,0,0-9.52-5.919,16.17,16.17,0,1,0-16.778,0A25.63,25.63,0,0,0,6,1026.668a1.861,1.861,0,1,0,3.723,0,21.835,21.835,0,0,1,20.95-21.842c.3.016.606.026.912.026s.61-.01.913-.026a21.828,21.828,0,0,1,20.949,21.842,1.861,1.861,0,1,0,3.723,0,25.445,25.445,0,0,0-4.391-14.318,15.671,15.671,0,0,1,15.088-15.5c.2.01.406.015.61.015s.408-.006.61-.015a15.673,15.673,0,0,1,15.09,15.688,1.861,1.861,0,1,0,3.723,0,19.463,19.463,0,0,0-12.167-18.014,12.449,12.449,0,0,0-7.257-22.573Zm0,3.723a8.735,8.735,0,0,1,.574,17.451q-.286-.009-.574-.009t-.574.009a8.735,8.735,0,0,1,.574-17.451Zm-36.893.549a12.453,12.453,0,0,1,.868,24.875c-.288-.009-.577-.016-.868-.016s-.579.009-.867.016a12.453,12.453,0,0,1,.867-24.875Z" transform="translate(-6 -971.953)" fill="#fff" stroke="#fff" stroke-width="0.51" fill-rule="evenodd"/>
      </g>
    </g>
  </g>
</svg>
